<svg xmlns="http://www.w3.org/2000/svg" viewBox="0 0 100 100">
  <defs>
    <radialGradient id="bg" cx="50%" cy="50%" r="50%">
      <stop offset="0%" stop-color="#1e3a5f"/>
      <stop offset="100%" stop-color="#0f172a"/>
    </radialGradient>
    <radialGradient id="glow" cx="50%" cy="65%" r="35%">
      <stop offset="0%" stop-color="#10b981" stop-opacity="0.6"/>
      <stop offset="100%" stop-color="#10b981" stop-opacity="0"/>
    </radialGradient>
  </defs>
  <rect width="100" height="100" rx="18" fill="url(#bg)"/>
  <path d="M50 10 L82 26 L82 70 Q82 88 50 95 Q18 88 18 70 L18 26 Z" fill="none" stroke="#f59e0b" stroke-width="3.5"/>
  <ellipse cx="50" cy="68" rx="22" ry="8" fill="url(#glow)"/>
  <path d="M50 38 L50 72" stroke="#f59e0b" stroke-width="1.5"/>
  <path d="M50 38 Q38 34 28 38 L28 72 Q38 68 50 72" fill="#f59e0b" fill-opacity="0.2" stroke="#f59e0b" stroke-width="1.5" stroke-linejoin="round"/>
  <path d="M50 38 Q62 34 72 38 L72 72 Q62 68 50 72" fill="#f59e0b" fill-opacity="0.2" stroke="#f59e0b" stroke-width="1.5" stroke-linejoin="round"/>
  <line x1="50" y1="38" x2="44" y2="26" stroke="#f59e0b" stroke-width="1.2" stroke-opacity="0.7"/>
  <line x1="50" y1="38" x2="50" y2="24" stroke="#f59e0b" stroke-width="1.5" stroke-opacity="0.9"/>
  <line x1="50" y1="38" x2="56" y2="26" stroke="#f59e0b" stroke-width="1.2" stroke-opacity="0.7"/>
  <line x1="50" y1="38" x2="40" y2="28" stroke="#f59e0b" stroke-width="1" stroke-opacity="0.5"/>
  <line x1="50" y1="38" x2="60" y2="28" stroke="#f59e0b" stroke-width="1" stroke-opacity="0.5"/>
</svg>
